<?xml version="1.0" encoding="utf-8"?>
<svg xmlns="http://www.w3.org/2000/svg" style="margin: auto; background: rgb(40, 40, 40) none repeat scroll 0% 0%; display: block; shape-rendering: auto;" width="721" height="250" preserveAspectRatio="xMidYMid">
<style type="text/css">
  text {
    text-anchor: middle; font-size: 75px; opacity: 0;
  }
</style>
<g style="transform-origin: 360.5px 125px 0px; transform: scale(0.925926);">
<g transform="translate(360.5,125) scale(2)">
  <g>
  <animateTransform attributeName="transform" type="rotate" values="0;90" keyTimes="0;1" dur="1s" repeatCount="indefinite"></animateTransform>
  <g transform="translate(-50,-50)">
  <line x1="50" y1="10" x2="50" y2="21.8" stroke-width="3" stroke="#556c4d" stroke-linecap="round"></line>
  <line x1="30" y1="15.4" x2="35.9" y2="25.6" stroke-width="3" stroke="#556c4d" stroke-linecap="round"></line>
  <line x1="15.4" y1="30" x2="25.6" y2="35.9" stroke-width="3" stroke="#556c4d" stroke-linecap="round"></line>
  <line x1="10" y1="50" x2="21.8" y2="50" stroke-width="3" stroke="#556c4d" stroke-linecap="round"></line>
  <line x1="15.4" y1="70" x2="25.6" y2="64.1" stroke-width="3" stroke="#556c4d" stroke-linecap="round"></line>
  <line x1="30" y1="84.6" x2="35.9" y2="74.4" stroke-width="3" stroke="#556c4d" stroke-linecap="round"></line>
  <line x1="50" y1="90" x2="50" y2="78.2" stroke-width="3" stroke="#556c4d" stroke-linecap="round"></line>
  <line x1="70" y1="84.6" x2="64.1" y2="74.4" stroke-width="3" stroke="#556c4d" stroke-linecap="round"></line>
  <line x1="84.6" y1="70" x2="74.4" y2="64.1" stroke-width="3" stroke="#556c4d" stroke-linecap="round"></line>
  <line x1="90" y1="50" x2="78.2" y2="50" stroke-width="3" stroke="#556c4d" stroke-linecap="round"></line>
  <line x1="84.6" y1="30" x2="74.4" y2="35.9" stroke-width="3" stroke="#556c4d" stroke-linecap="round"></line>
  <line x1="70" y1="15.4" x2="64.1" y2="25.6" stroke-width="3" stroke="#556c4d" stroke-linecap="round"></line>
</g>
  </g>
</g>

<g transform="translate(360.5,125)">
  <g transform="translate(0,0)"><g class="path" style="transform-origin: -323.115px -8.9023px 0px; animation: 1s linear -0.627s infinite normal forwards running static-de690ef1-7e7a-4d20-999f-963f7fb9ed4a;"><path d="M25.04-40.42L25.04-69.61L33.22-69.61L33.22 0L25.04 0L25.04-33.74L13.88-33.74L13.88 0L5.70 0L5.70-69.61L13.88-69.61L13.88-40.42L25.04-40.42" fill="#fabd2f" stroke="none" stroke-width="none" transform="translate(-342.57496643066406,25.90270208740235)" style="fill: rgb(250, 189, 47);"></path></g><g class="path" style="transform-origin: -293.67px -3.7623px 0px; animation: 1s linear -0.594s infinite normal forwards running static-de690ef1-7e7a-4d20-999f-963f7fb9ed4a;"><path d="M44.85 0L44.85-59.33L52.96-59.33L52.96 0L44.85 0" fill="#fabd2f" stroke="none" stroke-width="none" transform="translate(-342.57496643066406,25.90270208740235)" style="fill: rgb(250, 189, 47);"></path></g><g class="path" style="transform-origin: -293.65px -42.5973px 0px; animation: 1s linear -0.561s infinite normal forwards running static-de690ef1-7e7a-4d20-999f-963f7fb9ed4a;"><path d="M44.85-64.78L44.85-72.22L53.00-72.22L53.00-64.78L44.85-64.78" fill="#fabd2f" stroke="none" stroke-width="none" transform="translate(-342.57496643066406,25.90270208740235)" style="fill: rgb(250, 189, 47);"></path></g><g class="path" style="transform-origin: -251.275px -8.9023px 0px; animation: 1s linear -0.528s infinite normal forwards running static-de690ef1-7e7a-4d20-999f-963f7fb9ed4a;"><path d="M79.81-62.81L79.81-69.61L102.79-69.61L102.79-62.81L95.63-62.81L95.63 0L87.49 0L87.49-62.81L79.81-62.81" fill="#fabd2f" stroke="none" stroke-width="none" transform="translate(-342.57496643066406,25.90270208740235)" style="fill: rgb(250, 189, 47);"></path></g><g class="path" style="transform-origin: -219.315px -9.2773px 0px; animation: 1s linear -0.495s infinite normal forwards running static-de690ef1-7e7a-4d20-999f-963f7fb9ed4a;"><path d="M109.71 0L109.71-70.36L117.82-70.36L117.82-53.04L117.82-53.04Q118.65-55.92 121.26-58.00L121.26-58.00L121.26-58.00Q123.87-60.08 127.85-60.08L127.85-60.08L127.85-60.08Q131.82-60.08 134.31-56.85L134.31-56.85L134.31-56.85Q136.81-53.63 136.81-47.30L136.81-47.30L136.81 0L128.70 0L128.70-46.63L128.70-46.63Q128.70-53.08 123.83-53.08L123.83-53.08L123.83-53.08Q121.18-53.08 119.50-51.20L119.50-51.20L119.50-51.20Q117.82-49.32 117.82-45.64L117.82-45.64L117.82 0L109.71 0" fill="#fabd2f" stroke="none" stroke-width="none" transform="translate(-342.57496643066406,25.90270208740235)" style="fill: rgb(250, 189, 47);"></path></g><g class="path" style="transform-origin: -182.51px -3.7623px 0px; animation: 1s linear -0.462s infinite normal forwards running static-de690ef1-7e7a-4d20-999f-963f7fb9ed4a;"><path d="M147.13-19.97L147.13-40.94L147.13-40.94Q147.13-52.17 151.16-56.56L151.16-56.56L151.16-56.56Q154.33-60.04 160.50-60.04L160.50-60.04L160.50-60.04Q169.44-60.04 171.73-52.33L171.73-52.33L171.73-52.33Q173.00-47.98 173.00-40.58L173.00-40.58L173.00-29.39L155.28-29.39L155.28-17.56L155.28-17.56Q155.28-9.85 156.50-7.95L156.50-7.95L156.50-7.95Q157.73-6.05 160.38-6.05L160.38-6.05L160.38-6.05Q163.03-6.05 163.92-8.27L163.92-8.27L163.92-8.27Q164.81-10.48 164.85-13.07L164.85-13.07L164.85-13.07Q164.89-15.66 164.89-17.44L164.89-17.44L164.89-22.23L172.84-22.23L172.84-19.70L172.84-19.70Q172.84-10.24 171.51-6.45L171.51-6.45L171.51-6.45Q170.19-2.65 167.50-0.97L167.50-0.97L167.50-0.97Q164.81 0.71 160.83 0.71L160.83 0.71L160.83 0.71Q156.86 0.71 154.47-0.30L154.47-0.30L154.47-0.30Q152.07-1.31 150.67-2.97L150.67-2.97L150.67-2.97Q149.26-4.63 148.20-8.27L148.20-8.27L148.20-8.27Q147.13-11.90 147.13-19.97L147.13-19.97zM164.89-34.88L164.89-42.44L164.89-42.44Q164.89-48.77 164.43-50.07L164.43-50.07L164.43-50.07Q163.98-51.38 163.27-52.37L163.27-52.37L163.27-52.37Q162.55-53.35 160.69-53.35L160.69-53.35L160.69-53.35Q157.14-53.35 156.19-50.37L156.19-50.37L156.19-50.37Q155.24-47.38 155.24-42.16L155.24-42.16L155.24-34.88L164.89-34.88" fill="#fabd2f" stroke="none" stroke-width="none" transform="translate(-342.57496643066406,25.90270208740235)" style="fill: rgb(250, 189, 47);"></path></g><g class="path" style="transform-origin: -150.02px -4.1173px 0px; animation: 1s linear -0.429s infinite normal forwards running static-de690ef1-7e7a-4d20-999f-963f7fb9ed4a;"><path d="M201.59-60.04L201.59-60.04L201.59-60.04Q201.75-60.04 201.75-54.90L201.75-54.90L201.71-53.16L201.71-53.16Q194.59-53.16 191.50-48.21L191.50-48.21L191.50 0L183.36 0L183.36-59.33L191.50-59.33L191.50-52.72L191.50-52.72Q192.53-56.20 195.12-58.12L195.12-58.12L195.12-58.12Q197.71-60.04 201.59-60.04" fill="#fabd2f" stroke="none" stroke-width="none" transform="translate(-342.57496643066406,25.90270208740235)" style="fill: rgb(250, 189, 47);"></path></g><g class="path" style="transform-origin: -121.445px -3.7623px 0px; animation: 1s linear -0.396s infinite normal forwards running static-de690ef1-7e7a-4d20-999f-963f7fb9ed4a;"><path d="M208.20-19.97L208.20-40.94L208.20-40.94Q208.20-52.17 212.23-56.56L212.23-56.56L212.23-56.56Q215.39-60.04 221.56-60.04L221.56-60.04L221.56-60.04Q230.50-60.04 232.80-52.33L232.80-52.33L232.80-52.33Q234.06-47.98 234.06-40.58L234.06-40.58L234.06-29.39L216.34-29.39L216.34-17.56L216.34-17.56Q216.34-9.85 217.57-7.95L217.57-7.95L217.57-7.95Q218.79-6.05 221.44-6.05L221.44-6.05L221.44-6.05Q224.09-6.05 224.98-8.27L224.98-8.27L224.98-8.27Q225.87-10.48 225.91-13.07L225.91-13.07L225.91-13.07Q225.95-15.66 225.95-17.44L225.95-17.44L225.95-22.23L233.90-22.23L233.90-19.70L233.90-19.70Q233.90-10.24 232.58-6.45L232.58-6.45L232.58-6.45Q231.25-2.65 228.56-0.97L228.56-0.97L228.56-0.97Q225.87 0.71 221.90 0.71L221.90 0.71L221.90 0.71Q217.92 0.71 215.53-0.30L215.53-0.30L215.53-0.30Q213.14-1.31 211.74-2.97L211.74-2.97L211.74-2.97Q210.33-4.63 209.26-8.27L209.26-8.27L209.26-8.27Q208.20-11.90 208.20-19.97L208.20-19.97zM225.95-34.88L225.95-42.44L225.95-42.44Q225.95-48.77 225.50-50.07L225.50-50.07L225.50-50.07Q225.04-51.38 224.33-52.37L224.33-52.37L224.33-52.37Q223.62-53.35 221.76-53.35L221.76-53.35L221.76-53.35Q218.20-53.35 217.25-50.37L217.25-50.37L217.25-50.37Q216.30-47.38 216.30-42.16L216.30-42.16L216.30-34.88L225.95-34.88" fill="#fabd2f" stroke="none" stroke-width="none" transform="translate(-342.57496643066406,25.90270208740235)" style="fill: rgb(250, 189, 47);"></path></g><g class="path" style="transform-origin: -94.1549px 28.0627px 0px; animation: 1s linear -0.363s infinite normal forwards running static-de690ef1-7e7a-4d20-999f-963f7fb9ed4a;"><path d="M243.32 0L243.32-9.29L253.52-9.29L253.52-0.36L249.53 13.61L245.33 13.61L248.22 0L243.32 0" fill="#fabd2f" stroke="none" stroke-width="none" transform="translate(-342.57496643066406,25.90270208740235)" style="fill: rgb(250, 189, 47);"></path></g><g class="path" style="transform-origin: -55.3799px -8.9023px 0px; animation: 1s linear -0.33s infinite normal forwards running static-de690ef1-7e7a-4d20-999f-963f7fb9ed4a;"><path d="M283.10 0L283.10-69.61L291.29-69.61L291.29 0L283.10 0" fill="#fabd2f" stroke="none" stroke-width="none" transform="translate(-342.57496643066406,25.90270208740235)" style="fill: rgb(250, 189, 47);"></path></g><g class="path" style="transform-origin: -36.63px -31.1673px 0px; animation: 1s linear -0.297s infinite normal forwards running static-de690ef1-7e7a-4d20-999f-963f7fb9ed4a;"><path d="M304.42-44.49L302.05-69.65L309.84-69.65L307.27-44.49L304.42-44.49" fill="#fabd2f" stroke="none" stroke-width="none" transform="translate(-342.57496643066406,25.90270208740235)" style="fill: rgb(250, 189, 47);"></path></g><g class="path" style="transform-origin: -0.10495px -4.1373px 0px; animation: 1s linear -0.264s infinite normal forwards running static-de690ef1-7e7a-4d20-999f-963f7fb9ed4a;"><path d="M327.88-59.33L327.88-53.16L327.88-53.16Q328.71-56.16 331.16-58.12L331.16-58.12L331.16-58.12Q333.61-60.08 337.13-60.08L337.13-60.08L337.13-60.08Q343.38-60.08 345.52-54.07L345.52-54.07L345.52-54.07Q347.02-56.83 349.61-58.46L349.61-58.46L349.61-58.46Q352.20-60.08 355.56-60.08L355.56-60.08L355.56-60.08Q360.27-60.08 362.72-56.72L362.72-56.72L362.72-56.72Q365.17-53.35 365.17-46.83L365.17-46.83L365.17 0L357.06 0L357.06-47.07L357.06-47.07Q357.06-53.08 352.32-53.08L352.32-53.08L352.32-53.08Q346.94-53.08 346.54-47.58L346.54-47.58L346.54 0L338.40 0L338.40-47.10L338.40-47.10Q338.40-53.08 333.73-53.08L333.73-53.08L333.73-53.08Q330.88-53.08 329.38-51.24L329.38-51.24L329.38-51.24Q327.88-49.40 327.88-46.20L327.88-46.20L327.88 0L319.77 0L319.77-59.33L327.88-59.33" fill="#fabd2f" stroke="none" stroke-width="none" transform="translate(-342.57496643066406,25.90270208740235)" style="fill: rgb(250, 189, 47);"></path></g><g class="path" style="transform-origin: 67.4701px -8.9023px 0px; animation: 1s linear -0.231s infinite normal forwards running static-de690ef1-7e7a-4d20-999f-963f7fb9ed4a;"><path d="M396.18 0L396.18-69.61L410.77-69.61L410.77-69.61Q416.98-69.61 419.71-67.04L419.71-67.04L419.71-67.04Q422.44-64.47 423.00-58.30L423.00-58.30L423.00-58.30Q423.23-55.77 423.23-50.41L423.23-50.41L423.23-50.41Q423.23-45.05 421.83-41.41L421.83-41.41L421.83-41.41Q420.42-37.77 416.87-36.70L416.87-36.70L416.87-36.70Q419.48-36.27 420.82-33.95L420.82-33.95L420.82-33.95Q422.17-31.64 422.72-26.60L422.72-26.60L422.72-26.60Q423.27-21.56 423.27-11.61L423.27-11.61L423.27-11.61Q423.27-1.66 423.91 0L423.91 0L415.76 0L415.76 0Q415.13-1.27 415.13-23.45L415.13-23.45L415.13-23.45Q415.13-30.93 413.66-32.14L413.66-32.14L413.66-32.14Q412.20-33.34 409.23-33.34L409.23-33.34L404.37-33.62L404.37 0L396.18 0zM415.13-52.09L415.13-52.56L415.13-52.56Q415.13-60.59 413.68-61.86L413.68-61.86L413.68-61.86Q412.24-63.12 409.51-63.12L409.51-63.12L404.37-63.12L404.37-39.63L409.59-39.63L409.59-39.63Q411.96-39.63 413.07-40.54L413.07-40.54L413.07-40.54Q414.18-41.45 414.65-44.02L414.65-44.02L414.65-44.02Q415.13-46.59 415.13-52.09L415.13-52.09" fill="#fabd2f" stroke="none" stroke-width="none" transform="translate(-342.57496643066406,25.90270208740235)" style="fill: rgb(250, 189, 47);"></path></g><g class="path" style="transform-origin: 101.58px 1.2027px 0px; animation: 1s linear -0.198s infinite normal forwards running static-de690ef1-7e7a-4d20-999f-963f7fb9ed4a;"><path d="M446.37-28.48L450.25-59.33L458.08-59.33L448.23 1.15L448.23 1.15Q447.52 6.09 446.41 7.59L446.41 7.59L446.41 7.59Q445.30 9.10 443.96 9.51L443.96 9.51L443.96 9.51Q442.61 9.93 440.44 9.93L440.44 9.93L432.49 9.93L432.49 3.80L435.30 3.80L435.30 3.80Q439.45 3.80 439.88 2.85L439.88 2.85L439.88 2.85Q440.24 2.41 440.24 1.15L440.24 1.15L440.24 1.15Q440.24-0.12 439.92-2.10L439.92-2.10L430.23-59.33L438.10-59.33L442.38-28.48L444.12-12.42L444.83-12.42L446.37-28.48" fill="#fabd2f" stroke="none" stroke-width="none" transform="translate(-342.57496643066406,25.90270208740235)" style="fill: rgb(250, 189, 47);"></path></g><g class="path" style="transform-origin: 135.06px -3.8623px 0px; animation: 1s linear -0.165s infinite normal forwards running static-de690ef1-7e7a-4d20-999f-963f7fb9ed4a;"><path d="M482.64-10.13L482.64-32.71L482.64-32.71Q477.65-30.45 475.99-29.23L475.99-29.23L475.99-29.23Q474.33-28.00 473.48-26.36L473.48-26.36L473.48-26.36Q472.63-24.72 472.63-20.96L472.63-20.96L472.63-15.46L472.63-15.46Q472.63-10.28 473.54-8.17L473.54-8.17L473.54-8.17Q474.45-6.05 476.67-6.05L476.67-6.05L476.67-6.05Q478.88-6.05 480.46-7.34L480.46-7.34L480.46-7.34Q482.04-8.62 482.64-10.13L482.64-10.13zM465.20-40.46L465.20-42.16L465.20-42.16Q465.20-52.92 468.56-56.48L468.56-56.48L468.56-56.48Q471.92-60.04 478.13-60.04L478.13-60.04L478.13-60.04Q484.34-60.04 487.13-57.03L487.13-57.03L487.13-57.03Q489.92-54.03 490.55-47.38L490.55-47.38L490.55-47.38Q490.83-44.53 490.83-40.38L490.83-40.38L490.83 0L482.68 0L482.68-5.14L482.68-5.14Q482.04-3.01 479.91-1.25L479.91-1.25L479.91-1.25Q477.77 0.51 474.61 0.51L474.61 0.51L474.61 0.51Q464.52 0.51 464.44-15.23L464.44-15.23L464.44-21.00L464.44-21.00Q464.44-26.10 467.23-29.72L467.23-29.72L467.23-29.72Q470.02-33.34 482.64-37.97L482.64-37.97L482.64-42.56L482.64-42.56Q482.64-50.19 481.53-51.73L481.53-51.73L481.53-51.73Q480.42-53.27 477.75-53.27L477.75-53.27L477.75-53.27Q475.08-53.27 474.17-50.94L474.17-50.94L474.17-50.94Q473.26-48.61 473.26-42.52L473.26-42.52L473.26-40.46L465.20-40.46" fill="#fabd2f" stroke="none" stroke-width="none" transform="translate(-342.57496643066406,25.90270208740235)" style="fill: rgb(250, 189, 47);"></path></g><g class="path" style="transform-origin: 172.89px -4.1373px 0px; animation: 1s linear -0.132s infinite normal forwards running static-de690ef1-7e7a-4d20-999f-963f7fb9ed4a;"><path d="M510.01-59.33L510.01-53.04L510.01-53.04Q510.80-55.92 513.47-58.00L513.47-58.00L513.47-58.00Q516.14-60.08 520.11-60.08L520.11-60.08L520.11-60.08Q524.09-60.08 526.56-56.85L526.56-56.85L526.56-56.85Q529.03-53.63 529.03-47.30L529.03-47.30L529.03 0L520.92 0L520.92-47.26L520.92-47.26Q520.92-50.27 519.54-51.77L519.54-51.77L519.54-51.77Q518.15-53.27 515.70-53.27L515.70-53.27L515.70-53.27Q513.25-53.27 511.63-51.57L511.63-51.57L511.63-51.57Q510.01-49.87 510.01-46.47L510.01-46.47L510.01 0L501.90 0L501.90-59.33L510.01-59.33" fill="#fabd2f" stroke="none" stroke-width="none" transform="translate(-342.57496643066406,25.90270208740235)" style="fill: rgb(250, 189, 47);"></path></g><g class="path" style="transform-origin: 231.325px -8.9023px 0px; animation: 1s linear -0.099s infinite normal forwards running static-de690ef1-7e7a-4d20-999f-963f7fb9ed4a;"><path d="M560.04 0L560.04-69.61L574.63-69.61L574.63-69.61Q580.84-69.61 583.57-67.04L583.57-67.04L583.57-67.04Q586.30-64.47 586.85-58.30L586.85-58.30L586.85-58.30Q587.09-55.77 587.09-50.41L587.09-50.41L587.09-50.41Q587.09-45.05 585.69-41.41L585.69-41.41L585.69-41.41Q584.28-37.77 580.72-36.70L580.72-36.70L580.72-36.70Q583.33-36.27 584.68-33.95L584.68-33.95L584.68-33.95Q586.02-31.64 586.58-26.60L586.58-26.60L586.58-26.60Q587.13-21.56 587.13-11.61L587.13-11.61L587.13-11.61Q587.13-1.66 587.76 0L587.76 0L579.62 0L579.62 0Q578.98-1.27 578.98-23.45L578.98-23.45L578.98-23.45Q578.98-30.93 577.52-32.14L577.52-32.14L577.52-32.14Q576.06-33.34 573.09-33.34L573.09-33.34L568.23-33.62L568.23 0L560.04 0zM578.98-52.09L578.98-52.56L578.98-52.56Q578.98-60.59 577.54-61.86L577.54-61.86L577.54-61.86Q576.10-63.12 573.37-63.12L573.37-63.12L568.23-63.12L568.23-39.63L573.45-39.63L573.45-39.63Q575.82-39.63 576.93-40.54L576.93-40.54L576.93-40.54Q578.03-41.45 578.51-44.02L578.51-44.02L578.51-44.02Q578.98-46.59 578.98-52.09L578.98-52.09" fill="#fabd2f" stroke="none" stroke-width="none" transform="translate(-342.57496643066406,25.90270208740235)" style="fill: rgb(250, 189, 47);"></path></g><g class="path" style="transform-origin: 267.535px -3.7623px 0px; animation: 1s linear -0.066s infinite normal forwards running static-de690ef1-7e7a-4d20-999f-963f7fb9ed4a;"><path d="M596.94-19.62L596.94-40.62L596.94-40.62Q596.94-55.05 603.58-58.61L603.58-58.61L603.58-58.61Q606.27-60.04 609.83-60.04L609.83-60.04L609.83-60.04Q619.13-60.04 621.70-52.56L621.70-52.56L621.70-52.56Q623.28-47.86 623.28-40.62L623.28-40.62L623.28-19.62L623.28-19.62Q623.28-7.12 619.92-3.20L619.92-3.20L619.92-3.20Q616.56 0.71 610.19 0.71L610.19 0.71L610.19 0.71Q600.90 0.71 598.36-7.20L598.36-7.20L598.36-7.20Q596.94-11.75 596.94-19.62L596.94-19.62zM615.13-17.36L615.13-42.24L615.13-42.24Q615.13-50.70 612.72-52.52L612.72-52.52L612.72-52.52Q611.73-53.27 610.15-53.27L610.15-53.27L610.15-53.27Q606.95-53.27 606.02-50.39L606.02-50.39L606.02-50.39Q605.09-47.50 605.09-42.24L605.09-42.24L605.09-17.36L605.09-17.36Q605.09-8.62 607.54-6.80L607.54-6.80L607.54-6.80Q608.53-6.05 609.99-6.05L609.99-6.05L609.99-6.05Q610.07-6.05 610.15-6.05L610.15-6.05L610.15-6.05Q613.27-6.05 614.20-9.00L614.20-9.00L614.20-9.00Q615.13-11.94 615.13-17.36L615.13-17.36" fill="#fabd2f" stroke="none" stroke-width="none" transform="translate(-342.57496643066406,25.90270208740235)" style="fill: rgb(250, 189, 47);"></path></g><g class="path" style="transform-origin: 302.085px -3.7223px 0px; animation: 1s linear -0.033s infinite normal forwards running static-de690ef1-7e7a-4d20-999f-963f7fb9ed4a;"><path d="M657.65-13.61L657.65-13.61L657.65-13.61Q657.61 0.79 644.95 0.79L644.95 0.79L644.95 0.79Q638.55 0.79 635.34-3.28L635.34-3.28L635.34-3.28Q632.14-7.36 632.14-16.37L632.14-16.37L632.14-20.84L640.01-20.84L640.01-16.41L640.01-16.41Q640.01-6.13 644.68-6.13L644.68-6.13L644.68-6.13Q647.25-6.13 648.38-7.79L648.38-7.79L648.38-7.79Q649.50-9.45 649.50-13.57L649.50-13.57L649.50-13.57Q649.50-20.01 643.57-25.83L643.57-25.83L643.57-25.83Q643.14-26.26 641.51-27.78L641.51-27.78L641.51-27.78Q639.89-29.31 639.38-29.82L639.38-29.82L639.38-29.82Q631.67-37.18 631.67-46.08L631.67-46.08L631.67-46.08Q631.67-53.12 634.99-56.58L634.99-56.58L634.99-56.58Q638.31-60.04 644.44-60.04L644.44-60.04L644.44-60.04Q648.59-60.04 651.20-58.34L651.20-58.34L651.20-58.34Q656.66-54.78 656.66-41.53L656.66-41.53L656.66-38.68L648.95-38.68L648.95-42.79L648.95-42.79Q648.95-47.98 647.94-50.53L647.94-50.53L647.94-50.53Q646.93-53.08 644.48-53.08L644.48-53.08L644.48-53.08Q642.03-53.08 640.80-51.53L640.80-51.53L640.80-51.53Q639.58-49.99 639.58-46.31L639.58-46.31L639.58-46.31Q639.58-40.54 644.99-35.16L644.99-35.16L649.27-31.17L649.27-31.17Q657.65-23.14 657.65-13.61" fill="#fabd2f" stroke="none" stroke-width="none" transform="translate(-342.57496643066406,25.90270208740235)" style="fill: rgb(250, 189, 47);"></path></g><g class="path" style="transform-origin: 335.285px -3.7623px 0px; animation: 1s linear 0s infinite normal forwards running static-de690ef1-7e7a-4d20-999f-963f7fb9ed4a;"><path d="M664.93-19.97L664.93-40.94L664.93-40.94Q664.93-52.17 668.96-56.56L668.96-56.56L668.96-56.56Q672.13-60.04 678.30-60.04L678.30-60.04L678.30-60.04Q687.23-60.04 689.53-52.33L689.53-52.33L689.53-52.33Q690.79-47.98 690.79-40.58L690.79-40.58L690.79-29.39L673.08-29.39L673.08-17.56L673.08-17.56Q673.08-9.85 674.30-7.95L674.30-7.95L674.30-7.95Q675.53-6.05 678.18-6.05L678.18-6.05L678.18-6.05Q680.83-6.05 681.72-8.27L681.72-8.27L681.72-8.27Q682.61-10.48 682.65-13.07L682.65-13.07L682.65-13.07Q682.69-15.66 682.69-17.44L682.69-17.44L682.69-22.23L690.64-22.23L690.64-19.70L690.64-19.70Q690.64-10.24 689.31-6.45L689.31-6.45L689.31-6.45Q687.99-2.65 685.30-0.97L685.30-0.97L685.30-0.97Q682.61 0.71 678.63 0.71L678.63 0.71L678.63 0.71Q674.66 0.71 672.26-0.30L672.26-0.30L672.26-0.30Q669.87-1.31 668.47-2.97L668.47-2.97L668.47-2.97Q667.06-4.63 666.00-8.27L666.00-8.27L666.00-8.27Q664.93-11.90 664.93-19.97L664.93-19.97zM682.69-34.88L682.69-42.44L682.69-42.44Q682.69-48.77 682.23-50.07L682.23-50.07L682.23-50.07Q681.78-51.38 681.06-52.37L681.06-52.37L681.06-52.37Q680.35-53.35 678.49-53.35L678.49-53.35L678.49-53.35Q674.93-53.35 673.98-50.37L673.98-50.37L673.98-50.37Q673.04-47.38 673.04-42.16L673.04-42.16L673.04-34.88L682.69-34.88" fill="#fabd2f" stroke="none" stroke-width="none" transform="translate(-342.57496643066406,25.90270208740235)" style="fill: rgb(250, 189, 47);"></path></g></g>
</g>
</g>
<style id="static-de690ef1-7e7a-4d20-999f-963f7fb9ed4a" data-anikit=""> @keyframes static-de690ef1-7e7a-4d20-999f-963f7fb9ed4a { 0% { } 100% { } } </style></svg>